<svg xmlns="http://www.w3.org/2000/svg" width="34.564" height="51.731" viewBox="0 0 34.564 51.731">
  <g id="Grupo_4" data-name="Grupo 4" transform="translate(587 -1251)">
    <g id="Elipse_2" data-name="Elipse 2" transform="translate(-575.384 1251)" fill="#fff" stroke="#000" stroke-width="2">
      <circle cx="5.666" cy="5.666" r="5.666" stroke="none"/>
      <circle cx="5.666" cy="5.666" r="4.666" fill="none"/>
    </g>
    <g id="Elipse_16" data-name="Elipse 16" transform="translate(-575.384 1291.399)" fill="#fff" stroke="#000" stroke-width="2">
      <circle cx="5.666" cy="5.666" r="5.666" stroke="none"/>
      <circle cx="5.666" cy="5.666" r="4.666" fill="none"/>
    </g>
    <g id="Elipse_17" data-name="Elipse 17" transform="translate(-563.769 1263.182)" fill="#fff" stroke="#000" stroke-width="2">
      <circle cx="5.666" cy="5.666" r="5.666" stroke="none"/>
      <circle cx="5.666" cy="5.666" r="4.666" fill="none"/>
    </g>
    <g id="Elipse_18" data-name="Elipse 18" transform="translate(-587 1263.182)" fill="#fff" stroke="#000" stroke-width="2">
      <circle cx="5.666" cy="5.666" r="5.666" stroke="none"/>
      <circle cx="5.666" cy="5.666" r="4.666" fill="none"/>
    </g>
    <g id="Elipse_20" data-name="Elipse 20" transform="translate(-563.769 1278.065)" fill="#fff" stroke="#000" stroke-width="2">
      <circle cx="5.666" cy="5.666" r="5.666" stroke="none"/>
      <circle cx="5.666" cy="5.666" r="4.666" fill="none"/>
    </g>
    <g id="Elipse_21" data-name="Elipse 21" transform="translate(-587 1278.065)" fill="#fff" stroke="#000" stroke-width="2">
      <circle cx="5.666" cy="5.666" r="5.666" stroke="none"/>
      <circle cx="5.666" cy="5.666" r="4.666" fill="none"/>
    </g>
    <g id="Rectángulo_19" data-name="Rectángulo 19" transform="translate(-581.218 1258.065)" fill="#fff" stroke="#000" stroke-width="2">
      <rect width="23" height="38" stroke="none"/>
      <rect x="1" y="1" width="21" height="36" fill="none"/>
    </g>
  </g>
</svg>
