<svg xmlns="http://www.w3.org/2000/svg" width="24.174" height="30.62" viewBox="0 0 24.174 30.62">
  <g id="Grupo_23" data-name="Grupo 23" transform="translate(-323.49 -581.465)">
    <g id="Rectángulo_27" data-name="Rectángulo 27" transform="translate(323.49 593.255)" fill="#fff" stroke="#000" stroke-linecap="round" stroke-linejoin="round" stroke-width="2">
      <path d="M3,0H21.174a3,3,0,0,1,3,3V8.408a0,0,0,0,1,0,0H0a0,0,0,0,1,0,0V3A3,3,0,0,1,3,0Z" stroke="none"/>
      <path d="M3,1H21.174a2,2,0,0,1,2,2V7.408a0,0,0,0,1,0,0H1a0,0,0,0,1,0,0V3A2,2,0,0,1,3,1Z" fill="none"/>
    </g>
    <g id="Rectángulo_28" data-name="Rectángulo 28" transform="translate(325.592 581.465)" fill="#fff" stroke="#000" stroke-linecap="round" stroke-linejoin="round" stroke-width="2">
      <path d="M3,0H16.969a3,3,0,0,1,3,3V13.663a0,0,0,0,1,0,0H0a0,0,0,0,1,0,0V3A3,3,0,0,1,3,0Z" stroke="none"/>
      <path d="M3,1H16.969a2,2,0,0,1,2,2v9.663a0,0,0,0,1,0,0H1a0,0,0,0,1,0,0V3A2,2,0,0,1,3,1Z" fill="none"/>
    </g>
    <line id="Línea_1" data-name="Línea 1" y2="9.928" transform="translate(324.943 601.156)" fill="none" stroke="#000" stroke-linecap="round" stroke-width="2"/>
    <line id="Línea_2" data-name="Línea 2" y2="9.928" transform="translate(346.21 601.156)" fill="none" stroke="#000" stroke-linecap="round" stroke-width="2"/>
    <line id="Línea_3" data-name="Línea 3" y2="6.11" transform="translate(342.977 601.156)" fill="none" stroke="#000" stroke-linecap="round" stroke-width="2"/>
    <line id="Línea_4" data-name="Línea 4" y2="6.11" transform="translate(327.939 601.156)" fill="none" stroke="#000" stroke-linecap="round" stroke-width="2"/>
  </g>
</svg>
